PathFileType	4	(X/Y/Z)	Walk3.trc
DataRate	CameraRate	NumFrames	NumMarkers	Units	OrigDataRate	OrigDataStartFrame	OrigNumFrames
200.000000	200.000000	6	60	mm	200.000000	645	799
Frame#	Times		LToe		RCAR		RWRU		LLFC		RWRR		LFA1		RACR1		LUA1		STRN		LACR1		LElbow		RTH3		RLFC		LCAR		RFA1		RTB2		RToe		RFHD		RMT1		RMFC		LWRU		RTH2		RTB3		RMT5		LPSI		C7		LWRR		RPSI		RTB1		LTB1		RCAL		LTH3		LFHD		RTB4		LTB4		RASI		LTH4		RMMAL		LMT1		RLMAL		CLAV		LMFC		LTH2		LBHD		RBHD		RElbow		LTB2		LTB3		RUA1		RBack		LMMAL		RTH4		T10		LTH1		LCAL		RTH1		LMT5		LElbowM		RElbowM		LLMAL
			X1	Y1	Z1	X2	Y2	Z2	X3	Y3	Z3	X4	Y4	Z4	X5	Y5	Z5	X6	Y6	Z6	X7	Y7	Z7	X8	Y8	Z8	X9	Y9	Z9	X10	Y10	Z10	X11	Y11	Z11	X12	Y12	Z12	X13	Y13	Z13	X14	Y14	Z14	X15	Y15	Z15	X16	Y16	Z16	X17	Y17	Z17	X18	Y18	Z18	X19	Y19	Z19	X20	Y20	Z20	X21	Y21	Z21	X22	Y22	Z22	X23	Y23	Z23	X24	Y24	Z24	X25	Y25	Z25	X26	Y26	Z26	X27	Y27	Z27	X28	Y28	Z28	X29	Y29	Z29	X30	Y30	Z30	X31	Y31	Z31	X32	Y32	Z32	X33	Y33	Z33	X34	Y34	Z34	X35	Y35	Z35	X36	Y36	Z36	X37	Y37	Z37	X38	Y38	Z38	X39	Y39	Z39	X40	Y40	Z40	X41	Y41	Z41	X42	Y42	Z42	X43	Y43	Z43	X44	Y44	Z44	X45	Y45	Z45	X46	Y46	Z46	X47	Y47	Z47	X48	Y48	Z48	X49	Y49	Z49	X50	Y50	Z50	X51	Y51	Z51	X52	Y52	Z52	X53	Y53	Z53	X54	Y54	Z54	X55	Y55	Z55	X56	Y56	Z56	X57	Y57	Z57	X58	Y58	Z58	X59	Y59	Z59	X60	Y60	Z60

645	3.225	1101.6	105.56	-38.896	850.69	904.61	360.48	780.7	913.95	368.48	748.56	491.95	-123.82	830	945.3	301.78	609.25	1014.5	-282.94	590.67	1480.5	218.87	573.09	1318.2	-230.98	720.84	1278.3	37.43	586.67	1504.1	-153.06	532.91	1149	-272.58	447.05	640.15	221.81	419.47	502.39	207.75	643.6	847.79	-296.83	736.06	1052.5	345.26	379.41	264.6	174.54	458	33.96	101.94	712.65	1693.7	101.09	409.22	50.909	86.764	421.65	499.86	58.835	572.96	887	-296.44	518.83	714.08	235.37	345.35	192.09	104.97	359.43	29.714	181.45	444.65	1041.9	-47.286	479.45	1530.9	39.432	650.32	886.69	-241.42	432.48	1044.6	60.495	419.51	347.57	122.04	836.83	369.76	-20.257	185.7	68.131	99.181	716.97	631.95	-155.91	716.44	1698.5	-4.461	382.6	269.3	112.53	859.41	287.92	-17.977	698.06	1030.4	187.25	686.6	712	-174.25	288.4	112.69	50.559	1049.4	90.153	-23.411	251.91	91.09	142.26	652.28	1449.3	23.037	756.24	491.39	18.981	740.05	736.47	-164.59	553.18	1665.2	-30.779	544.22	1661.4	110.82	609.5	1141.9	350.93	881.52	292.03	-77.531	885.77	206.23	-16.875	609.66	1304.6	298.62	429.22	1405.4	159.89	903.43	104.5	20.397	459.34	722.23	232.24	450.49	1172.1	11.991	653.73	792.5	-185.15	836.28	32.581	-38.407	473.76	808.72	243.84	1016.6	61.744	-104.5	500.54	1124.2	-187.72	579.61	1103.6	265.56	890.36	75.574	-78.641
646	3.23	1104.2	100.11	-38.134	855.85	903.89	359.52	785.91	913.23	367.57	754.08	491.9	-124.03	835.17	944.54	300.77	615.26	1013.5	-283.38	596.14	1480	217.99	578.87	1317.4	-231.81	726.73	1278.1	36.468	592.15	1503.3	-154.07	539.07	1148.1	-273.19	452.45	639.92	221.25	424.42	502.36	207.32	649.43	846.71	-297.2	741.36	1051.8	344.33	382	264.87	174.32	457.99	34.018	101.84	718	1693.4	100.42	409.41	50.838	86.749	426.56	499.72	58.485	578.85	886.01	-297.04	524.47	713.66	234.72	347.11	192.72	104.9	359.65	29.831	181.28	450.54	1041.6	-47.792	484.99	1530.5	38.473	656.09	885.62	-241.81	438.56	1044	59.975	422.9	347.44	121.73	841.22	369.07	-20.08	186.25	70.418	99.402	722.53	631.93	-155.73	721.89	1698.3	-5.1387	385.19	269.6	112.27	863.15	287.07	-17.712	703.91	1029.4	186.49	692.31	711.96	-174.35	289.38	113.84	50.692	1051.7	85.844	-22.72	252.71	92.674	142.42	657.92	1448.9	22.08	761.33	491.45	18.788	745.83	736.37	-165.04	558.66	1664.9	-31.624	549.56	1661	109.98	614.87	1141.4	350.11	885.76	291.08	-77.098	888.89	205.19	-16.504	615.06	1304	297.77	434.79	1404.8	158.86	905.72	103.25	20.841	464.97	721.95	231.7	456.48	1171.6	11.426	659.58	792.45	-185.62	837.31	33.222	-38.177	479.62	808.41	243.33	1018.3	58.28	-103.99	506.54	1123.2	-188.41	584.87	1103	264.8	892.35	74.752	-78.235
647	3.235	1106.6	94.732	-37.419	860.87	903.16	358.61	790.96	912.53	366.68	759.6	492.03	-124.34	840.21	943.76	299.79	621.29	1012.5	-283.82	601.65	1479.6	217.1	584.65	1316.6	-232.64	732.64	1277.9	35.456	597.61	1502.7	-155.1	545.24	1147.2	-273.79	457.99	639.7	220.68	429.57	502.35	206.9	655.27	845.74	-297.59	746.59	1051.1	343.39	384.73	265.2	174.09	457.98	34.077	101.73	723.37	1693.2	99.747	409.61	50.757	86.726	431.68	499.59	58.155	584.74	885.1	-297.63	530.22	713.3	234.05	348.99	193.44	104.83	359.89	29.976	181.09	456.4	1041.4	-48.265	490.56	1530.2	37.508	661.89	884.65	-242.23	444.63	1043.6	59.51	426.44	347.35	121.43	845.54	368.51	-20.017	186.9	72.893	99.621	727.99	631.99	-155.62	727.37	1698.2	-5.8168	387.93	269.99	112	866.82	286.35	-17.569	709.4	1028.3	185.74	697.91	712	-174.49	290.47	115.1	50.836	1053.8	81.654	-22.102	253.59	94.385	142.58	663.58	1448.6	21.097	766.28	491.64	18.532	751.49	736.35	-165.45	564.18	1664.7	-32.48	554.94	1660.7	109.13	620.21	1140.9	349.25	889.93	290.26	-76.783	891.91	204.28	-16.266	620.46	1303.6	296.91	440.37	1404.3	157.82	907.87	102.16	21.147	470.7	721.69	231.13	462.44	1171.3	10.908	665.32	792.49	-186.09	838.27	33.961	-38.073	485.56	808.13	242.8	1019.8	54.896	-103.58	512.57	1122.3	-189.08	590.1	1102.4	264	894.25	74.031	-77.963
648	3.24	1108.9	89.48	-36.795	865.74	902.43	357.72	795.87	911.85	365.81	765.14	492.32	-124.75	845.13	942.97	298.84	627.32	1011.7	-284.26	607.19	1479.3	216.2	590.43	1316	-233.47	738.58	1277.9	34.396	603.07	1502.2	-156.15	551.42	1146.5	-274.38	463.68	639.51	220.09	434.93	502.37	206.51	661.12	844.9	-298	751.73	1050.5	342.45	387.61	265.6	173.88	457.97	34.136	101.61	728.78	1693.2	99.071	409.82	50.666	86.695	437	499.48	57.854	590.64	884.31	-298.21	536.1	712.99	233.36	351	194.26	104.78	360.16	30.153	180.87	462.23	1041.4	-48.703	496.17	1530	36.541	667.7	883.8	-242.67	450.69	1043.3	59.102	430.15	347.31	121.14	849.81	368.08	-20.078	187.65	75.571	99.829	733.36	632.14	-155.57	732.87	1698.3	-6.496	390.83	270.45	111.7	870.41	285.75	-17.554	714.53	1027.4	185.03	703.41	712.14	-174.67	291.68	116.48	50.989	1055.8	77.628	-21.588	254.57	96.232	142.73	669.25	1448.4	20.09	771.13	491.99	18.209	757.04	736.42	-165.83	569.73	1664.6	-33.345	560.34	1660.6	108.26	625.5	1140.6	348.35	894	289.57	-76.599	894.84	203.5	-16.162	625.86	1303.3	296.02	445.97	1404	156.78	909.88	101.21	21.317	476.54	721.46	230.54	468.37	1171	10.443	670.97	792.63	-186.58	839.15	34.768	-38.075	491.58	807.88	242.22	1021.2	51.619	-103.31	518.62	1121.6	-189.72	595.3	1101.9	263.15	896.03	73.391	-77.816
649	3.245	1111.1	84.408	-36.299	870.44	901.7	356.87	800.62	911.2	364.96	770.69	492.76	-125.26	849.91	942.19	297.92	633.35	1011	-284.7	612.76	1479.1	215.29	596.21	1315.5	-234.3	744.53	1278.1	33.289	608.52	1501.9	-157.21	557.6	1145.9	-274.94	469.53	639.35	219.51	440.51	502.42	206.16	666.98	844.2	-298.44	756.8	1049.9	341.51	390.64	266.08	173.67	457.96	34.193	101.5	734.21	1693.3	98.389	410.05	50.568	86.655	442.56	499.38	57.594	596.54	883.65	-298.78	542.09	712.75	232.66	353.15	195.18	104.73	360.45	30.365	180.63	468.01	1041.6	-49.102	501.81	1529.9	35.577	673.53	883.08	-243.13	456.71	1043	58.754	434.05	347.32	120.88	854.04	367.77	-20.264	188.53	78.462	100.02	738.71	632.4	-155.61	738.41	1698.4	-7.1774	393.91	271.01	111.39	873.94	285.28	-17.667	719.31	1026.6	184.34	708.83	712.38	-174.89	293.03	117.99	51.15	1057.6	73.806	-21.203	255.66	98.224	142.87	674.93	1448.4	19.062	775.92	492.48	17.811	762.5	736.62	-166.18	575.32	1664.7	-34.221	565.78	1660.5	107.39	630.76	1140.3	347.41	897.98	288.97	-76.554	897.67	202.83	-16.189	631.25	1303	295.12	451.58	1403.8	155.74	911.77	100.41	21.359	482.5	721.26	229.92	474.25	1171	10.032	676.53	792.86	-187.09	839.98	35.614	-38.161	497.66	807.67	241.62	1022.5	48.473	-103.2	524.7	1121	-190.34	600.48	1101.6	262.26	897.69	72.816	-77.784
650	3.25	1113	79.558	-35.951	874.98	900.97	356.06	805.21	910.59	364.12	776.25	493.32	-125.85	854.56	941.41	297.04	639.39	1010.5	-285.14	618.38	1479.1	214.38	601.98	1315.1	-235.12	750.49	1278.3	32.138	613.96	1501.7	-158.28	563.79	1145.4	-275.49	475.53	639.2	218.92	446.32	502.51	205.86	672.84	843.66	-298.9	761.79	1049.4	340.57	393.83	266.64	173.5	457.95	34.244	101.38	739.66	1693.5	97.702	410.29	50.465	86.608	448.38	499.28	57.385	602.43	883.13	-299.35	548.2	712.57	231.95	355.46	196.2	104.71	360.76	30.617	180.37	473.76	1041.8	-49.463	507.48	1530	34.618	679.37	882.5	-243.6	462.71	1042.9	58.465	438.15	347.39	120.66	858.21	367.55	-20.573	189.55	81.579	100.17	744.08	632.78	-155.74	743.97	1698.7	-7.8622	397.19	271.65	111.05	877.39	284.9	-17.904	723.73	1025.8	183.68	714.22	712.74	-175.18	294.54	119.63	51.32	1059.3	70.222	-20.958	256.87	100.37	142.99	680.63	1448.6	18.017	780.69	493.11	17.335	767.91	736.96	-166.51	580.93	1665	-35.106	571.24	1660.7	106.5	635.97	1140.2	346.42	901.83	288.46	-76.647	900.42	202.27	-16.34	636.65	1302.9	294.2	457.21	1403.8	154.72	913.54	99.738	21.284	488.57	721.09	229.3	480.07	1171	9.6699	682.02	793.2	-187.64	840.76	36.476	-38.314	503.81	807.51	240.98	1023.6	45.482	-103.27	530.8	1120.5	-190.92	605.63	1101.5	261.31	899.22	72.288	-77.855
